NotoSerifTamilSlanted-Regular.ufo
<glyph name="exclam" format="2">
  <advance width="333"/>
  <unicode hex="0021"/>
  <outline>
    <contour>
      <point x="122" y="201" type="line"/>
      <point x="176" y="201" type="line"/>
      <point x="316" y="714" type="line"/>
      <point x="200" y="714" type="line"/>
    </contour>
    <contour>
      <point x="116" y="-8" type="curve" smooth="yes"/>
      <point x="153" y="-8"/>
      <point x="188" y="17"/>
      <point x="188" y="76" type="curve" smooth="yes"/>
      <point x="188" y="110"/>
      <point x="165" y="129"/>
      <point x="132" y="129" type="curve" smooth="yes"/>
      <point x="99" y="129"/>
      <point x="60" y="104"/>
      <point x="60" y="47" type="curve" smooth="yes"/>
      <point x="60" y="12"/>
      <point x="83" y="-8"/>
    </contour>
  </outline>
</glyph>
<glyph name="parenright" format="2">
  <advance width="346"/>
  <unicode hex="0029"/>
  <outline>
    <contour>
      <point x="-49" y="-136" type="line"/>
      <point x="198" y="-71"/>
      <point x="317" y="195"/>
      <point x="317" y="438" type="curve" smooth="yes"/>
      <point x="317" y="577"/>
      <point x="265" y="698"/>
      <point x="140" y="752" type="curve"/>
      <point x="130" y="706" type="line"/>
      <point x="200" y="657"/>
      <point x="223" y="570"/>
      <point x="223" y="485" type="curve" smooth="yes"/>
      <point x="223" y="347"/>
      <point x="172" y="23"/>
      <point x="-39" y="-91" type="curve"/>
    </contour>
  </outline>
</glyph>
<glyph name="asterisk" format="2">
  <advance width="500"/>
  <unicode hex="002A"/>
  <outline>
    <contour>
      <point x="331" y="373" type="line"/>
      <point x="337" y="533" type="line"/>
      <point x="469" y="410" type="line"/>
      <point x="519" y="478" type="line"/>
      <point x="364" y="561" type="line"/>
      <point x="540" y="574" type="line"/>
      <point x="522" y="658" type="line"/>
      <point x="351" y="598" type="line"/>
      <point x="411" y="747" type="line"/>
      <point x="326" y="765" type="line"/>
      <point x="318" y="604" type="line"/>
      <point x="188" y="731" type="line"/>
      <point x="137" y="661" type="line"/>
      <point x="291" y="577" type="line"/>
      <point x="116" y="563" type="line"/>
      <point x="134" y="479" type="line"/>
      <point x="304" y="540" type="line"/>
      <point x="246" y="391" type="line"/>
    </contour>
  </outline>
</glyph>
<glyph name="plus" format="2">
  <advance width="559"/>
  <unicode hex="002B"/>
  <outline>
    <contour>
      <point x="249" y="143" type="line"/>
      <point x="309" y="143" type="line"/>
      <point x="309" y="328" type="line"/>
      <point x="494" y="328" type="line"/>
      <point x="494" y="387" type="line"/>
      <point x="309" y="387" type="line"/>
      <point x="309" y="572" type="line"/>
      <point x="249" y="572" type="line"/>
      <point x="249" y="387" type="line"/>
      <point x="65" y="387" type="line"/>
      <point x="65" y="328" type="line"/>
      <point x="249" y="328" type="line"/>
    </contour>
  </outline>
</glyph>
<glyph name="one" format="2">
  <advance width="559"/>
  <unicode hex="0031"/>
  <outline>
    <contour>
      <point x="38" y="0" type="line"/>
      <point x="410" y="0" type="line"/>
      <point x="419" y="42" type="line"/>
      <point x="365" y="42" type="line" smooth="yes"/>
      <point x="323" y="42"/>
      <point x="293" y="48"/>
      <point x="293" y="82" type="curve" smooth="yes"/>
      <point x="293" y="88"/>
      <point x="295" y="102"/>
      <point x="297" y="110" type="curve" smooth="yes"/>
      <point x="426" y="718" type="line"/>
      <point x="362" y="718" type="line"/>
      <point x="281" y="666" type="line" smooth="yes"/>
      <point x="205" y="617"/>
      <point x="163" y="601"/>
      <point x="117" y="589" type="curve"/>
      <point x="117" y="558"/>
      <point x="129" y="535"/>
      <point x="157" y="535" type="curve" smooth="yes"/>
      <point x="200" y="535"/>
      <point x="241" y="574"/>
      <point x="308" y="639" type="curve"/>
      <point x="312" y="639" type="line"/>
      <point x="299" y="587"/>
      <point x="286" y="534"/>
      <point x="275" y="482" type="curve" smooth="yes"/>
      <point x="197" y="114" type="line" smooth="yes"/>
      <point x="184" y="51"/>
      <point x="144" y="42"/>
      <point x="99" y="42" type="curve" smooth="yes"/>
      <point x="46" y="42" type="line"/>
    </contour>
  </outline>
</glyph>
<glyph name="three" format="2">
  <advance width="559"/>
  <unicode hex="0033"/>
  <outline>
    <contour>
      <point x="191" y="-10" type="curve" smooth="yes"/>
      <point x="315" y="-10"/>
      <point x="466" y="48"/>
      <point x="466" y="225" type="curve" smooth="yes"/>
      <point x="466" y="311"/>
      <point x="408" y="366"/>
      <point x="316" y="376" type="curve"/>
      <point x="450" y="400"/>
      <point x="517" y="488"/>
      <point x="517" y="581" type="curve" smooth="yes"/>
      <point x="517" y="672"/>
      <point x="443" y="724"/>
      <point x="333" y="724" type="curve" smooth="yes"/>
      <point x="211" y="724"/>
      <point x="113" y="671"/>
      <point x="113" y="589" type="curve" smooth="yes"/>
      <point x="113" y="540"/>
      <point x="145" y="525"/>
      <point x="187" y="525" type="curve"/>
      <point x="204" y="604"/>
      <point x="238" y="674"/>
      <point x="329" y="674" type="curve" smooth="yes"/>
      <point x="388" y="674"/>
      <point x="414" y="636"/>
      <point x="414" y="583" type="curve" smooth="yes"/>
      <point x="414" y="470"/>
      <point x="331" y="395"/>
      <point x="219" y="395" type="curve" smooth="yes"/>
      <point x="187" y="395" type="line"/>
      <point x="177" y="344" type="line"/>
      <point x="220" y="344" type="line" smooth="yes"/>
      <point x="309" y="344"/>
      <point x="361" y="296"/>
      <point x="361" y="214" type="curve" smooth="yes"/>
      <point x="361" y="102"/>
      <point x="287" y="45"/>
      <point x="198" y="45" type="curve" smooth="yes"/>
      <point x="108" y="45"/>
      <point x="73" y="108"/>
      <point x="73" y="169" type="curve"/>
      <point x="31" y="169"/>
      <point x="-3" y="142"/>
      <point x="-3" y="95" type="curve" smooth="yes"/>
      <point x="-3" y="40"/>
      <point x="48" y="-10"/>
    </contour>
  </outline>
</glyph>
<glyph name="five" format="2">
  <advance width="559"/>
  <unicode hex="0035"/>
  <outline>
    <contour>
      <point x="183" y="-10" type="curve" smooth="yes"/>
      <point x="360" y="-10"/>
      <point x="467" y="99"/>
      <point x="467" y="243" type="curve" smooth="yes"/>
      <point x="467" y="362"/>
      <point x="385" y="427"/>
      <point x="257" y="427" type="curve" smooth="yes"/>
      <point x="212" y="427"/>
      <point x="183" y="418"/>
      <point x="161" y="411" type="curve"/>
      <point x="227" y="634" type="line"/>
      <point x="421" y="634" type="line" smooth="yes"/>
      <point x="457" y="634"/>
      <point x="467" y="624"/>
      <point x="467" y="610" type="curve" smooth="yes"/>
      <point x="467" y="602"/>
      <point x="465" y="580"/>
      <point x="464" y="563" type="curve"/>
      <point x="506" y="563" type="line"/>
      <point x="533" y="714" type="line"/>
      <point x="199" y="714" type="line"/>
      <point x="92" y="357" type="line"/>
      <point x="126" y="350" type="line"/>
      <point x="154" y="361"/>
      <point x="184" y="372"/>
      <point x="235" y="372" type="curve" smooth="yes"/>
      <point x="308" y="372"/>
      <point x="363" y="327"/>
      <point x="363" y="236" type="curve" smooth="yes"/>
      <point x="363" y="109"/>
      <point x="294" y="45"/>
      <point x="192" y="45" type="curve" smooth="yes"/>
      <point x="106" y="45"/>
      <point x="84" y="101"/>
      <point x="83" y="152" type="curve"/>
      <point x="31" y="152"/>
      <point x="8" y="127"/>
      <point x="8" y="90" type="curve" smooth="yes"/>
      <point x="8" y="35"/>
      <point x="54" y="-10"/>
    </contour>
  </outline>
</glyph>
<glyph name="six" format="2">
  <advance width="559"/>
  <unicode hex="0036"/>
  <outline>
    <contour>
      <point x="248" y="-10" type="curve" smooth="yes"/>
      <point x="413" y="-10"/>
      <point x="492" y="120"/>
      <point x="492" y="259" type="curve" smooth="yes"/>
      <point x="492" y="354"/>
      <point x="439" y="434"/>
      <point x="323" y="434" type="curve" smooth="yes"/>
      <point x="259" y="434"/>
      <point x="206" y="403"/>
      <point x="176" y="382" type="curve"/>
      <point x="224" y="575"/>
      <point x="300" y="676"/>
      <point x="400" y="676" type="curve" smooth="yes"/>
      <point x="461" y="676"/>
      <point x="468" y="618"/>
      <point x="468" y="559" type="curve"/>
      <point x="523" y="559"/>
      <point x="555" y="587"/>
      <point x="555" y="634" type="curve" smooth="yes"/>
      <point x="555" y="682"/>
      <point x="503" y="724"/>
      <point x="402" y="724" type="curve" smooth="yes"/>
      <point x="190" y="724"/>
      <point x="60" y="481"/>
      <point x="60" y="232" type="curve" smooth="yes"/>
      <point x="60" y="70"/>
      <point x="144" y="-10"/>
    </contour>
    <contour>
      <point x="254" y="45" type="curve" smooth="yes"/>
      <point x="191" y="45"/>
      <point x="151" y="91"/>
      <point x="151" y="195" type="curve" smooth="yes"/>
      <point x="151" y="233"/>
      <point x="156" y="274"/>
      <point x="165" y="325" type="curve"/>
      <point x="198" y="353"/>
      <point x="251" y="383"/>
      <point x="303" y="383" type="curve" smooth="yes"/>
      <point x="362" y="383"/>
      <point x="393" y="337"/>
      <point x="393" y="253" type="curve" smooth="yes"/>
      <point x="393" y="135"/>
      <point x="337" y="45"/>
    </contour>
  </outline>
</glyph>
<glyph name="eight" format="2">
  <advance width="559"/>
  <unicode hex="0038"/>
  <outline>
    <contour>
      <point x="232" y="-10" type="curve" smooth="yes"/>
      <point x="372" y="-10"/>
      <point x="486" y="56"/>
      <point x="486" y="202" type="curve" smooth="yes"/>
      <point x="486" y="283"/>
      <point x="434" y="337"/>
      <point x="359" y="381" type="curve"/>
      <point x="465" y="425"/>
      <point x="533" y="477"/>
      <point x="533" y="578" type="curve" smooth="yes"/>
      <point x="533" y="662"/>
      <point x="467" y="724"/>
      <point x="349" y="724" type="curve" smooth="yes"/>
      <point x="179" y="724"/>
      <point x="110" y="639"/>
      <point x="110" y="531" type="curve" smooth="yes"/>
      <point x="110" y="468"/>
      <point x="147" y="408"/>
      <point x="208" y="365" type="curve"/>
      <point x="92" y="322"/>
      <point x="10" y="274"/>
      <point x="10" y="162" type="curve" smooth="yes"/>
      <point x="10" y="62"/>
      <point x="91" y="-10"/>
    </contour>
    <contour>
      <point x="235" y="39" type="curve" smooth="yes"/>
      <point x="154" y="39"/>
      <point x="106" y="86"/>
      <point x="106" y="160" type="curve" smooth="yes"/>
      <point x="106" y="251"/>
      <point x="163" y="305"/>
      <point x="254" y="339" type="curve"/>
      <point x="345" y="293"/>
      <point x="391" y="250"/>
      <point x="391" y="178" type="curve" smooth="yes"/>
      <point x="391" y="85"/>
      <point x="320" y="39"/>
    </contour>
    <contour>
      <point x="311" y="405" type="curve"/>
      <point x="240" y="443"/>
      <point x="206" y="485"/>
      <point x="206" y="542" type="curve" smooth="yes"/>
      <point x="206" y="623"/>
      <point x="260" y="674"/>
      <point x="341" y="674" type="curve" smooth="yes"/>
      <point x="411" y="674"/>
      <point x="444" y="630"/>
      <point x="444" y="571" type="curve" smooth="yes"/>
      <point x="444" y="501"/>
      <point x="411" y="448"/>
    </contour>
  </outline>
</glyph>
<glyph name="nine" format="2">
  <advance width="559"/>
  <unicode hex="0039"/>
  <outline>
    <contour>
      <point x="175" y="-10" type="curve" smooth="yes"/>
      <point x="431" y="-10"/>
      <point x="520" y="342"/>
      <point x="520" y="527" type="curve" smooth="yes"/>
      <point x="520" y="653"/>
      <point x="449" y="724"/>
      <point x="337" y="724" type="curve" smooth="yes"/>
      <point x="194" y="724"/>
      <point x="73" y="608"/>
      <point x="73" y="441" type="curve" smooth="yes"/>
      <point x="73" y="344"/>
      <point x="134" y="275"/>
      <point x="242" y="275" type="curve" smooth="yes"/>
      <point x="312" y="275"/>
      <point x="361" y="308"/>
      <point x="395" y="343" type="curve"/>
      <point x="342" y="148"/>
      <point x="284" y="39"/>
      <point x="183" y="39" type="curve" smooth="yes"/>
      <point x="120" y="39"/>
      <point x="95" y="92"/>
      <point x="94" y="138" type="curve"/>
      <point x="57" y="138"/>
      <point x="35" y="113"/>
      <point x="35" y="80" type="curve" smooth="yes"/>
      <point x="35" y="36"/>
      <point x="67" y="-10"/>
    </contour>
    <contour>
      <point x="267" y="330" type="curve" smooth="yes"/>
      <point x="210" y="330"/>
      <point x="173" y="367"/>
      <point x="173" y="438" type="curve" smooth="yes"/>
      <point x="173" y="551"/>
      <point x="240" y="669"/>
      <point x="334" y="669" type="curve" smooth="yes"/>
      <point x="388" y="669"/>
      <point x="427" y="630"/>
      <point x="427" y="533" type="curve" smooth="yes"/>
      <point x="427" y="504"/>
      <point x="420" y="450"/>
      <point x="411" y="415" type="curve"/>
      <point x="381" y="374"/>
      <point x="332" y="330"/>
    </contour>
  </outline>
</glyph>
<glyph name="less" format="2">
  <advance width="559"/>
  <unicode hex="003C"/>
  <outline>
    <contour>
      <point x="494" y="110" type="line"/>
      <point x="494" y="177" type="line"/>
      <point x="158" y="357" type="line"/>
      <point x="494" y="539" type="line"/>
      <point x="494" y="606" type="line"/>
      <point x="65" y="375" type="line"/>
      <point x="65" y="340" type="line"/>
    </contour>
  </outline>
</glyph>
<glyph name="equal" format="2">
  <advance width="559"/>
  <unicode hex="003D"/>
  <outline>
    <contour>
      <point x="65" y="426" type="line"/>
      <point x="494" y="426" type="line"/>
      <point x="494" y="485" type="line"/>
      <point x="65" y="485" type="line"/>
    </contour>
    <contour>
      <point x="65" y="229" type="line"/>
      <point x="494" y="229" type="line"/>
      <point x="494" y="288" type="line"/>
      <point x="65" y="288" type="line"/>
    </contour>
  </outline>
</glyph>
<glyph name="braceleft" format="2">
  <advance width="428"/>
  <unicode hex="007B"/>
  <outline>
    <contour>
      <point x="232" y="-128" type="curve" smooth="yes"/>
      <point x="298" y="-128" type="line"/>
      <point x="307" y="-85" type="line"/>
      <point x="277" y="-85" type="line" smooth="yes"/>
      <point x="232" y="-85"/>
      <point x="212" y="-63"/>
      <point x="212" y="-22" type="curve" smooth="yes"/>
      <point x="212" y="-10"/>
      <point x="214" y="4"/>
      <point x="217" y="20" type="curve" smooth="yes"/>
      <point x="254" y="192" type="line" smooth="yes"/>
      <point x="256" y="203"/>
      <point x="258" y="213"/>
      <point x="258" y="223" type="curve" smooth="yes"/>
      <point x="258" y="271"/>
      <point x="228" y="304"/>
      <point x="169" y="314" type="curve"/>
      <point x="169" y="318" type="line"/>
      <point x="248" y="331"/>
      <point x="292" y="374"/>
      <point x="306" y="440" type="curve" smooth="yes"/>
      <point x="343" y="612" type="line" smooth="yes"/>
      <point x="358" y="680"/>
      <point x="389" y="717"/>
      <point x="448" y="717" type="curve" smooth="yes"/>
      <point x="478" y="717" type="line"/>
      <point x="487" y="760" type="line"/>
      <point x="421" y="760" type="line" smooth="yes"/>
      <point x="294" y="760"/>
      <point x="265" y="704"/>
      <point x="246" y="616" type="curve" smooth="yes"/>
      <point x="209" y="443" type="line" smooth="yes"/>
      <point x="191" y="361"/>
      <point x="135" y="341"/>
      <point x="69" y="338" type="curve"/>
      <point x="60" y="296" type="line"/>
      <point x="116" y="294"/>
      <point x="159" y="277"/>
      <point x="159" y="222" type="curve" smooth="yes"/>
      <point x="159" y="212"/>
      <point x="158" y="202"/>
      <point x="155" y="190" type="curve" smooth="yes"/>
      <point x="118" y="15" type="line" smooth="yes"/>
      <point x="115" y="0"/>
      <point x="113" y="-14"/>
      <point x="113" y="-27" type="curve" smooth="yes"/>
      <point x="113" y="-92"/>
      <point x="154" y="-128"/>
    </contour>
  </outline>
</glyph>
<glyph name="twosuperior" format="2">
  <advance width="400"/>
  <unicode hex="00B2"/>
  <outline>
    <contour>
      <point x="57" y="386" type="line"/>
      <point x="360" y="386" type="line"/>
      <point x="388" y="505" type="line"/>
      <point x="354" y="505" type="line"/>
      <point x="346" y="484" type="line" smooth="yes"/>
      <point x="338" y="462"/>
      <point x="324" y="443"/>
      <point x="293" y="443" type="curve" smooth="yes"/>
      <point x="155" y="443" type="line"/>
      <point x="275" y="538" type="line" smooth="yes"/>
      <point x="383" y="624"/>
      <point x="413" y="670"/>
      <point x="413" y="729" type="curve" smooth="yes"/>
      <point x="413" y="786"/>
      <point x="362" y="824"/>
      <point x="282" y="824" type="curve" smooth="yes"/>
      <point x="187" y="824"/>
      <point x="130" y="787"/>
      <point x="130" y="737" type="curve" smooth="yes"/>
      <point x="130" y="709"/>
      <point x="154" y="689"/>
      <point x="194" y="689" type="curve"/>
      <point x="201" y="739"/>
      <point x="230" y="784"/>
      <point x="275" y="784" type="curve" smooth="yes"/>
      <point x="312" y="784"/>
      <point x="325" y="755"/>
      <point x="325" y="726" type="curve" smooth="yes"/>
      <point x="325" y="661"/>
      <point x="300" y="613"/>
      <point x="217" y="544" type="curve" smooth="yes"/>
      <point x="62" y="416" type="line"/>
    </contour>
  </outline>
</glyph>
<glyph name="a-tamil" format="2">
  <advance width="1296"/>
  <unicode hex="0B85"/>
  <note>
uni0B85
</note>
  <anchor x="563" y="0" name="bottom"/>
  <anchor x="361" y="-122" name="nukta"/>
  <anchor x="691" y="554" name="top"/>
  <anchor x="691" y="554" name="vedic"/>
  <outline>
    <contour>
      <point x="1004" y="-199" type="line"/>
      <point x="1097" y="-199" type="line"/>
      <point x="1257" y="554" type="line"/>
      <point x="1164" y="554" type="line"/>
      <point x="1083" y="171" type="line"/>
      <point x="98" y="171" type="line" smooth="yes"/>
      <point x="34" y="171"/>
      <point x="-2" y="137"/>
      <point x="-2" y="80" type="curve" smooth="yes"/>
      <point x="-2" y="-12"/>
      <point x="154" y="-122"/>
      <point x="386" y="-122" type="curve" smooth="yes"/>
      <point x="693" y="-122"/>
      <point x="945" y="1"/>
      <point x="945" y="294" type="curve" smooth="yes"/>
      <point x="945" y="473"/>
      <point x="813" y="559"/>
      <point x="651" y="559" type="curve" smooth="yes"/>
      <point x="516" y="559"/>
      <point x="406" y="483"/>
      <point x="406" y="371" type="curve" smooth="yes"/>
      <point x="406" y="305"/>
      <point x="454" y="247"/>
      <point x="548" y="247" type="curve" smooth="yes"/>
      <point x="640" y="247"/>
      <point x="705" y="297"/>
      <point x="705" y="393" type="curve" smooth="yes"/>
      <point x="705" y="456"/>
      <point x="659" y="504"/>
      <point x="608" y="519" type="curve"/>
      <point x="553" y="516" type="line"/>
      <point x="599" y="495"/>
      <point x="618" y="450"/>
      <point x="618" y="405" type="curve" smooth="yes"/>
      <point x="618" y="340"/>
      <point x="586" y="301"/>
      <point x="531" y="301" type="curve" smooth="yes"/>
      <point x="489" y="301"/>
      <point x="463" y="330"/>
      <point x="463" y="369" type="curve" smooth="yes"/>
      <point x="463" y="453"/>
      <point x="544" y="505"/>
      <point x="641" y="505" type="curve" smooth="yes"/>
      <point x="757" y="505"/>
      <point x="850" y="426"/>
      <point x="850" y="289" type="curve" smooth="yes"/>
      <point x="850" y="35"/>
      <point x="641" y="-68"/>
      <point x="390" y="-68" type="curve" smooth="yes"/>
      <point x="195" y="-68"/>
      <point x="56" y="19"/>
      <point x="56" y="81" type="curve" smooth="yes"/>
      <point x="56" y="103"/>
      <point x="64" y="117"/>
      <point x="95" y="117" type="curve" smooth="yes"/>
      <point x="1072" y="117" type="line"/>
    </contour>
  </outline>
</glyph>
<glyph name="uu-tamil" format="2">
  <advance width="1706"/>
  <unicode hex="0B8A"/>
  <note>
uni0B8A
</note>
  <anchor x="829" y="0" name="bottom"/>
  <anchor x="830" y="0" name="nukta"/>
  <anchor x="951" y="554" name="top"/>
  <anchor x="950" y="554" name="vedic"/>
  <outline>
    <contour>
      <point x="98" y="0" type="curve" smooth="yes"/>
      <point x="1623" y="0" type="line"/>
      <point x="1635" y="54" type="line"/>
      <point x="101" y="54" type="line" smooth="yes"/>
      <point x="81" y="54"/>
      <point x="65" y="65"/>
      <point x="65" y="91" type="curve" smooth="yes"/>
      <point x="65" y="119"/>
      <point x="89" y="135"/>
      <point x="117" y="135" type="curve" smooth="yes"/>
      <point x="363" y="135" type="line" smooth="yes"/>
      <point x="530" y="135"/>
      <point x="661" y="208"/>
      <point x="661" y="360" type="curve" smooth="yes"/>
      <point x="661" y="495"/>
      <point x="550" y="559"/>
      <point x="412" y="559" type="curve" smooth="yes"/>
      <point x="278" y="559"/>
      <point x="156" y="484"/>
      <point x="156" y="375" type="curve" smooth="yes"/>
      <point x="156" y="311"/>
      <point x="198" y="247"/>
      <point x="298" y="247" type="curve" smooth="yes"/>
      <point x="392" y="247"/>
      <point x="460" y="299"/>
      <point x="460" y="385" type="curve" smooth="yes"/>
      <point x="460" y="448"/>
      <point x="416" y="498"/>
      <point x="368" y="519" type="curve"/>
      <point x="315" y="516" type="line"/>
      <point x="352" y="485"/>
      <point x="373" y="447"/>
      <point x="373" y="402" type="curve" smooth="yes"/>
      <point x="373" y="339"/>
      <point x="342" y="301"/>
      <point x="283" y="301" type="curve" smooth="yes"/>
      <point x="233" y="301"/>
      <point x="213" y="338"/>
      <point x="213" y="377" type="curve" smooth="yes"/>
      <point x="213" y="452"/>
      <point x="306" y="505"/>
      <point x="398" y="505" type="curve" smooth="yes"/>
      <point x="496" y="505"/>
      <point x="568" y="459"/>
      <point x="568" y="358" type="curve" smooth="yes"/>
      <point x="568" y="247"/>
      <point x="484" y="188"/>
      <point x="361" y="188" type="curve" smooth="yes"/>
      <point x="125" y="188" type="line" smooth="yes"/>
      <point x="53" y="188"/>
      <point x="7" y="145"/>
      <point x="7" y="83" type="curve" smooth="yes"/>
      <point x="7" y="34"/>
      <point x="46" y="0"/>
    </contour>
    <contour>
      <point x="909" y="103" type="curve" smooth="yes"/>
      <point x="1009" y="103"/>
      <point x="1085" y="158"/>
      <point x="1085" y="264" type="curve" smooth="yes"/>
      <point x="1085" y="343"/>
      <point x="1032" y="390"/>
      <point x="956" y="390" type="curve" smooth="yes"/>
      <point x="873" y="390"/>
      <point x="814" y="324"/>
      <point x="782" y="242" type="curve"/>
      <point x="797" y="208" type="line"/>
      <point x="824" y="271"/>
      <point x="863" y="327"/>
      <point x="921" y="327" type="curve" smooth="yes"/>
      <point x="967" y="327"/>
      <point x="994" y="296"/>
      <point x="994" y="252" type="curve" smooth="yes"/>
      <point x="994" y="197"/>
      <point x="958" y="156"/>
      <point x="899" y="156" type="curve" smooth="yes"/>
      <point x="838" y="156"/>
      <point x="798" y="208"/>
      <point x="798" y="278" type="curve" smooth="yes"/>
      <point x="798" y="415"/>
      <point x="901" y="505"/>
      <point x="1029" y="505" type="curve" smooth="yes"/>
      <point x="1150" y="505"/>
      <point x="1227" y="420"/>
      <point x="1199" y="291" type="curve"/>
      <point x="1240" y="291" type="line"/>
      <point x="1272" y="460"/>
      <point x="1175" y="559"/>
      <point x="1020" y="559" type="curve" smooth="yes"/>
      <point x="864" y="559"/>
      <point x="741" y="441"/>
      <point x="741" y="278" type="curve" smooth="yes"/>
      <point x="741" y="182"/>
      <point x="810" y="103"/>
    </contour>
    <contour>
      <point x="1160" y="107" type="line"/>
      <point x="1253" y="107" type="line"/>
      <point x="1337" y="502" type="line"/>
      <point x="1527" y="502" type="line"/>
      <point x="1443" y="107" type="line"/>
      <point x="1536" y="107" type="line"/>
      <point x="1620" y="502" type="line"/>
      <point x="1730" y="502" type="line"/>
      <point x="1741" y="554" type="line"/>
      <point x="1259" y="554" type="line"/>
      <point x="1222" y="379" type="line"/>
      <point x="1217" y="375" type="line"/>
    </contour>
  </outline>
</glyph>
<glyph name="ee-tamil" format="2">
  <advance width="912"/>
  <unicode hex="0B8F"/>
  <note>
uni0B8F
</note>
  <anchor x="435" y="0" name="bottom"/>
  <anchor x="395" y="-195" name="nukta"/>
  <anchor x="556" y="554" name="top"/>
  <anchor x="556" y="554" name="vedic"/>
  <outline>
    <contour>
      <point x="385" y="-240" type="line"/>
      <point x="671" y="14" type="line"/>
      <point x="775" y="500" type="line"/>
      <point x="941" y="500" type="line"/>
      <point x="953" y="554" type="line"/>
      <point x="438" y="554" type="line" smooth="yes"/>
      <point x="199" y="554"/>
      <point x="50" y="417"/>
      <point x="50" y="213" type="curve" smooth="yes"/>
      <point x="50" y="81"/>
      <point x="138" y="-5"/>
      <point x="251" y="-5" type="curve" smooth="yes"/>
      <point x="352" y="-5"/>
      <point x="434" y="55"/>
      <point x="434" y="166" type="curve" smooth="yes"/>
      <point x="434" y="239"/>
      <point x="381" y="303"/>
      <point x="289" y="303" type="curve" smooth="yes"/>
      <point x="194" y="303"/>
      <point x="122" y="229"/>
      <point x="98" y="123" type="curve"/>
      <point x="124" y="96" type="line"/>
      <point x="144" y="184"/>
      <point x="197" y="236"/>
      <point x="259" y="236" type="curve" smooth="yes"/>
      <point x="313" y="236"/>
      <point x="340" y="199"/>
      <point x="340" y="154" type="curve" smooth="yes"/>
      <point x="340" y="92"/>
      <point x="303" y="49"/>
      <point x="240" y="49" type="curve" smooth="yes"/>
      <point x="167" y="49"/>
      <point x="108" y="109"/>
      <point x="108" y="218" type="curve" smooth="yes"/>
      <point x="108" y="392"/>
      <point x="237" y="500"/>
      <point x="440" y="500" type="curve" smooth="yes"/>
      <point x="682" y="500" type="line"/>
      <point x="578" y="8" type="line"/>
      <point x="348" y="-196" type="line"/>
    </contour>
  </outline>
</glyph>
<glyph name="ca-tamil" format="2">
  <advance width="716"/>
  <unicode hex="0B9A"/>
  <note>
uni0B9A
</note>
  <anchor x="316" y="0" name="bottom"/>
  <anchor x="658" y="554" name="imatra"/>
  <anchor x="310" y="0" name="nukta"/>
  <anchor x="490" y="554" name="top"/>
  <anchor x="425" y="554" name="vedic"/>
  <outline>
    <contour>
      <point x="225" y="-4" type="curve" smooth="yes"/>
      <point x="355" y="-4"/>
      <point x="430" y="58"/>
      <point x="458" y="188" type="curve" smooth="yes"/>
      <point x="474" y="263" type="line"/>
      <point x="646" y="263" type="line"/>
      <point x="656" y="317" type="line"/>
      <point x="485" y="317" type="line"/>
      <point x="524" y="500" type="line"/>
      <point x="696" y="500" type="line"/>
      <point x="707" y="554" type="line"/>
      <point x="223" y="554" type="line"/>
      <point x="166" y="286" type="line"/>
      <point x="226" y="286" type="line"/>
      <point x="271" y="500" type="line"/>
      <point x="431" y="500" type="line"/>
      <point x="392" y="317" type="line"/>
      <point x="249" y="317" type="line" smooth="yes"/>
      <point x="126" y="317"/>
      <point x="34" y="259"/>
      <point x="34" y="148" type="curve" smooth="yes"/>
      <point x="34" y="53"/>
      <point x="115" y="-4"/>
    </contour>
    <contour>
      <point x="221" y="49" type="curve" smooth="yes"/>
      <point x="151" y="49"/>
      <point x="99" y="85"/>
      <point x="99" y="155" type="curve" smooth="yes"/>
      <point x="99" y="229"/>
      <point x="159" y="263"/>
      <point x="245" y="263" type="curve" smooth="yes"/>
      <point x="381" y="263" type="line"/>
      <point x="364" y="181" type="line" smooth="yes"/>
      <point x="344" y="84"/>
      <point x="297" y="49"/>
    </contour>
  </outline>
</glyph>
<glyph name="nya-tamil" format="2">
  <advance width="1279"/>
  <unicode hex="0B9E"/>
  <note>
uni0B9E
</note>
  <anchor x="614" y="0" name="bottom"/>
  <anchor x="1090" y="554" name="imatra"/>
  <anchor x="552" y="-348" name="nukta"/>
  <anchor x="723" y="554" name="top"/>
  <anchor x="700" y="554" name="vedic"/>
  <outline>
    <contour>
      <point x="552" y="-348" type="curve" smooth="yes"/>
      <point x="919" y="-348"/>
      <point x="1196" y="-121"/>
      <point x="1196" y="171" type="curve" smooth="yes"/>
      <point x="1196" y="280"/>
      <point x="1143" y="345"/>
      <point x="1050" y="345" type="curve" smooth="yes"/>
      <point x="957" y="345"/>
      <point x="906" y="280"/>
      <point x="886" y="185" type="curve" smooth="yes"/>
      <point x="876" y="138" type="line"/>
      <point x="903" y="138" type="line"/>
      <point x="913" y="188" type="line" smooth="yes"/>
      <point x="924" y="241"/>
      <point x="950" y="286"/>
      <point x="1014" y="286" type="curve" smooth="yes"/>
      <point x="1068" y="286"/>
      <point x="1100" y="249"/>
      <point x="1100" y="172" type="curve" smooth="yes"/>
      <point x="1100" y="-82"/>
      <point x="873" y="-294"/>
      <point x="556" y="-294" type="curve" smooth="yes"/>
      <point x="297" y="-294"/>
      <point x="95" y="-134"/>
      <point x="95" y="152" type="curve" smooth="yes"/>
      <point x="95" y="360"/>
      <point x="211" y="517"/>
      <point x="377" y="627" type="curve"/>
      <point x="347" y="672" type="line"/>
      <point x="167" y="550"/>
      <point x="38" y="379"/>
      <point x="38" y="146" type="curve" smooth="yes"/>
      <point x="38" y="-165"/>
      <point x="267" y="-348"/>
    </contour>
    <component base="e-tamil" xOffset="211"/>
  </outline>
</glyph>
<glyph name="ta-tamil" format="2">
  <advance width="837"/>
  <unicode hex="0BA4"/>
  <note>
uni0BA4
</note>
  <anchor x="334" y="0" name="bottom"/>
  <anchor x="634" y="554" name="imatra"/>
  <anchor x="304" y="-140" name="nukta"/>
  <anchor x="471" y="554" name="top"/>
  <anchor x="453" y="554" name="vedic"/>
  <outline>
    <contour>
      <point x="60" y="-249" type="curve"/>
      <point x="75" y="-180"/>
      <point x="103" y="-140"/>
      <point x="195" y="-140" type="curve" smooth="yes"/>
      <point x="365" y="-140" type="line" smooth="yes"/>
      <point x="597" y="-140"/>
      <point x="741" y="-57"/>
      <point x="741" y="126" type="curve" smooth="yes"/>
      <point x="741" y="243"/>
      <point x="657" y="317"/>
      <point x="517" y="317" type="curve" smooth="yes"/>
      <point x="486" y="317" type="line"/>
      <point x="525" y="500" type="line"/>
      <point x="697" y="500" type="line"/>
      <point x="708" y="554" type="line"/>
      <point x="224" y="554" type="line"/>
      <point x="167" y="286" type="line"/>
      <point x="227" y="286" type="line"/>
      <point x="272" y="500" type="line"/>
      <point x="432" y="500" type="line"/>
      <point x="393" y="317" type="line"/>
      <point x="250" y="317" type="line" smooth="yes"/>
      <point x="127" y="317"/>
      <point x="35" y="259"/>
      <point x="35" y="148" type="curve" smooth="yes"/>
      <point x="35" y="53"/>
      <point x="116" y="-4"/>
      <point x="226" y="-4" type="curve" smooth="yes"/>
      <point x="356" y="-4"/>
      <point x="431" y="58"/>
      <point x="459" y="188" type="curve" smooth="yes"/>
      <point x="475" y="263" type="line"/>
      <point x="507" y="263" type="line" smooth="yes"/>
      <point x="595" y="263"/>
      <point x="648" y="208"/>
      <point x="648" y="120" type="curve" smooth="yes"/>
      <point x="648" y="-9"/>
      <point x="557" y="-91"/>
      <point x="349" y="-91" type="curve" smooth="yes"/>
      <point x="171" y="-91" type="line" smooth="yes"/>
      <point x="60" y="-91"/>
      <point x="-14" y="-116"/>
      <point x="-14" y="-188" type="curve" smooth="yes"/>
      <point x="-14" y="-229"/>
      <point x="12" y="-249"/>
    </contour>
    <contour>
      <point x="222" y="49" type="curve" smooth="yes"/>
      <point x="152" y="49"/>
      <point x="100" y="85"/>
      <point x="100" y="155" type="curve" smooth="yes"/>
      <point x="100" y="229"/>
      <point x="160" y="263"/>
      <point x="246" y="263" type="curve" smooth="yes"/>
      <point x="382" y="263" type="line"/>
      <point x="365" y="181" type="line" smooth="yes"/>
      <point x="345" y="84"/>
      <point x="298" y="49"/>
    </contour>
  </outline>
</glyph>
<glyph name="llla-tamil" format="2">
  <advance width="908"/>
  <unicode hex="0BB4"/>
  <note>
uni0BB4
</note>
  <anchor x="394" y="0" name="bottom"/>
  <anchor x="323" y="-335" name="nukta"/>
  <anchor x="536" y="554" name="top"/>
  <anchor x="530" y="554" name="vedic"/>
  <anchor x="836" y="554" name="imatra"/>
  <outline>
    <contour>
      <point x="214" y="-363" type="curve" smooth="yes"/>
      <point x="418" y="-363"/>
      <point x="449" y="-171"/>
      <point x="617" y="-171" type="curve" smooth="yes"/>
      <point x="683" y="-171" type="line"/>
      <point x="695" y="-117" type="line"/>
      <point x="614" y="-117" type="line" smooth="yes"/>
      <point x="512" y="-117"/>
      <point x="457" y="-73"/>
      <point x="475" y="12" type="curve" smooth="yes"/>
      <point x="493" y="96" type="line"/>
      <point x="400" y="96" type="line"/>
      <point x="382" y="12" type="line" smooth="yes"/>
      <point x="366" y="-64"/>
      <point x="429" y="-134"/>
      <point x="512" y="-139" type="curve"/>
      <point x="511" y="-144" type="line"/>
      <point x="359" y="-155"/>
      <point x="336" y="-306"/>
      <point x="204" y="-306" type="curve" smooth="yes"/>
      <point x="145" y="-306"/>
      <point x="106" y="-267"/>
      <point x="106" y="-215" type="curve" smooth="yes"/>
      <point x="106" y="-160"/>
      <point x="142" y="-123"/>
      <point x="202" y="-123" type="curve" smooth="yes"/>
      <point x="235" y="-123"/>
      <point x="270" y="-137"/>
      <point x="295" y="-164" type="curve"/>
      <point x="333" y="-125" type="line"/>
      <point x="297" y="-85"/>
      <point x="252" y="-69"/>
      <point x="200" y="-69" type="curve" smooth="yes"/>
      <point x="112" y="-69"/>
      <point x="48" y="-136"/>
      <point x="48" y="-223" type="curve" smooth="yes"/>
      <point x="48" y="-302"/>
      <point x="117" y="-363"/>
    </contour>
    <component base="ma-tamil"/>
  </outline>
</glyph>
<glyph name="sa-tamil" format="2">
  <advance width="1336"/>
  <unicode hex="0BB8"/>
  <note>
uni0BB8
</note>
  <anchor x="617" y="0" name="bottom"/>
  <anchor x="617" y="0" name="nukta"/>
  <anchor x="716" y="554" name="top"/>
  <anchor x="732" y="554" name="vedic"/>
  <outline>
    <contour>
      <point x="536" y="0" type="line"/>
      <point x="629" y="0" type="line"/>
      <point x="717" y="412" type="line" smooth="yes"/>
      <point x="729" y="466"/>
      <point x="765" y="504"/>
      <point x="820" y="504" type="curve" smooth="yes"/>
      <point x="873" y="504"/>
      <point x="910" y="469"/>
      <point x="895" y="399" type="curve" smooth="yes"/>
      <point x="851" y="192" type="line" smooth="yes"/>
      <point x="828" y="85"/>
      <point x="880" y="0"/>
      <point x="999" y="0" type="curve" smooth="yes"/>
      <point x="1165" y="0"/>
      <point x="1285" y="158"/>
      <point x="1285" y="344" type="curve" smooth="yes"/>
      <point x="1285" y="431"/>
      <point x="1261" y="501"/>
      <point x="1221" y="559" type="curve"/>
      <point x="1175" y="528" type="line"/>
      <point x="1205" y="484"/>
      <point x="1233" y="415"/>
      <point x="1233" y="343" type="curve" smooth="yes"/>
      <point x="1233" y="197"/>
      <point x="1141" y="59"/>
      <point x="1014" y="59" type="curve" smooth="yes"/>
      <point x="943" y="59"/>
      <point x="928" y="117"/>
      <point x="944" y="191" type="curve" smooth="yes"/>
      <point x="985" y="383" type="line" smooth="yes"/>
      <point x="1009" y="494"/>
      <point x="942" y="559"/>
      <point x="838" y="559" type="curve" smooth="yes"/>
      <point x="738" y="559"/>
      <point x="684" y="491"/>
      <point x="668" y="418" type="curve" smooth="yes"/>
      <point x="649" y="330" type="line"/>
      <point x="606" y="330" type="line"/>
    </contour>
    <contour>
      <point x="252" y="-5" type="curve" smooth="yes"/>
      <point x="353" y="-5"/>
      <point x="435" y="55"/>
      <point x="435" y="166" type="curve" smooth="yes"/>
      <point x="435" y="239"/>
      <point x="382" y="303"/>
      <point x="290" y="303" type="curve" smooth="yes"/>
      <point x="195" y="303"/>
      <point x="123" y="229"/>
      <point x="99" y="123" type="curve"/>
      <point x="125" y="96" type="line"/>
      <point x="145" y="184"/>
      <point x="198" y="236"/>
      <point x="260" y="236" type="curve" smooth="yes"/>
      <point x="314" y="236"/>
      <point x="341" y="199"/>
      <point x="341" y="154" type="curve" smooth="yes"/>
      <point x="341" y="92"/>
      <point x="304" y="49"/>
      <point x="241" y="49" type="curve" smooth="yes"/>
      <point x="168" y="49"/>
      <point x="109" y="109"/>
      <point x="109" y="218" type="curve" smooth="yes"/>
      <point x="109" y="386"/>
      <point x="216" y="505"/>
      <point x="393" y="505" type="curve" smooth="yes"/>
      <point x="519" y="505"/>
      <point x="629" y="436"/>
      <point x="597" y="288" type="curve"/>
      <point x="657" y="293" type="line"/>
      <point x="690" y="470"/>
      <point x="559" y="559"/>
      <point x="401" y="559" type="curve" smooth="yes"/>
      <point x="190" y="559"/>
      <point x="51" y="415"/>
      <point x="51" y="213" type="curve" smooth="yes"/>
      <point x="51" y="81"/>
      <point x="139" y="-5"/>
    </contour>
  </outline>
</glyph>
<glyph name="iMatra-tamil" format="2">
  <advance width="227"/>
  <unicode hex="0BBF"/>
  <note>
uni0BBF
</note>
  <anchor x="-28" y="834" name="top"/>
  <outline>
    <contour>
      <point x="13" y="0" type="line"/>
      <point x="73" y="0" type="line"/>
      <point x="189" y="544" type="line" smooth="yes"/>
      <point x="225" y="714"/>
      <point x="145" y="834"/>
      <point x="-28" y="834" type="curve" smooth="yes"/>
      <point x="-160" y="834"/>
      <point x="-256" y="748"/>
      <point x="-256" y="638" type="curve" smooth="yes"/>
      <point x="-256" y="555"/>
      <point x="-205" y="500"/>
      <point x="-137" y="500" type="curve" smooth="yes"/>
      <point x="-132" y="500" type="line"/>
      <point x="-121" y="554" type="line"/>
      <point x="-126" y="554" type="line" smooth="yes"/>
      <point x="-168" y="554"/>
      <point x="-193" y="584"/>
      <point x="-193" y="628" type="curve" smooth="yes"/>
      <point x="-193" y="700"/>
      <point x="-120" y="746"/>
      <point x="-34" y="746" type="curve" smooth="yes"/>
      <point x="87" y="746"/>
      <point x="156" y="671"/>
      <point x="126" y="530" type="curve" smooth="yes"/>
    </contour>
  </outline>
</glyph>
<glyph name="om-tamil" format="2">
  <advance width="992"/>
  <unicode hex="0BD0"/>
  <note>
uni0BD0
</note>
  <outline>
    <contour>
      <point x="232" y="-388" type="curve" smooth="yes"/>
      <point x="499" y="-388"/>
      <point x="516" y="-146"/>
      <point x="688" y="-146" type="curve" smooth="yes"/>
      <point x="720" y="-146" type="line"/>
      <point x="731" y="-93" type="line"/>
      <point x="699" y="-93" type="line" smooth="yes"/>
      <point x="533" y="-93"/>
      <point x="470" y="83"/>
      <point x="598" y="208" type="curve"/>
      <point x="602" y="204" type="line"/>
      <point x="537" y="108"/>
      <point x="572" y="-5"/>
      <point x="692" y="-5" type="curve" smooth="yes"/>
      <point x="826" y="-5"/>
      <point x="927" y="92"/>
      <point x="927" y="241" type="curve" smooth="yes"/>
      <point x="927" y="469"/>
      <point x="713" y="559"/>
      <point x="511" y="559" type="curve" smooth="yes"/>
      <point x="267" y="559"/>
      <point x="49" y="406"/>
      <point x="49" y="223" type="curve" smooth="yes"/>
      <point x="49" y="91"/>
      <point x="129" y="5"/>
      <point x="242" y="5" type="curve" smooth="yes"/>
      <point x="343" y="5"/>
      <point x="430" y="67"/>
      <point x="430" y="178" type="curve" smooth="yes"/>
      <point x="430" y="255"/>
      <point x="377" y="313"/>
      <point x="290" y="313" type="curve" smooth="yes"/>
      <point x="195" y="313"/>
      <point x="116" y="239"/>
      <point x="92" y="133" type="curve"/>
      <point x="118" y="106" type="line"/>
      <point x="138" y="194"/>
      <point x="198" y="246"/>
      <point x="260" y="246" type="curve" smooth="yes"/>
      <point x="312" y="246"/>
      <point x="336" y="213"/>
      <point x="336" y="166" type="curve" smooth="yes"/>
      <point x="336" y="104"/>
      <point x="294" y="59"/>
      <point x="231" y="59" type="curve" smooth="yes"/>
      <point x="158" y="59"/>
      <point x="107" y="119"/>
      <point x="107" y="228" type="curve" smooth="yes"/>
      <point x="107" y="377"/>
      <point x="293" y="505"/>
      <point x="503" y="505" type="curve" smooth="yes"/>
      <point x="672" y="505"/>
      <point x="836" y="415"/>
      <point x="836" y="251" type="curve" smooth="yes"/>
      <point x="836" y="145"/>
      <point x="782" y="49"/>
      <point x="691" y="49" type="curve" smooth="yes"/>
      <point x="593" y="49"/>
      <point x="607" y="174"/>
      <point x="691" y="260" type="curve"/>
      <point x="646" y="304" type="line"/>
      <point x="465" y="196"/>
      <point x="424" y="-34"/>
      <point x="575" y="-113" type="curve"/>
      <point x="574" y="-118" type="line"/>
      <point x="446" y="-143"/>
      <point x="414" y="-322"/>
      <point x="218" y="-322" type="curve" smooth="yes"/>
      <point x="106" y="-322"/>
      <point x="52" y="-265"/>
      <point x="91" y="-160" type="curve"/>
      <point x="37" y="-150" type="line"/>
      <point x="-12" y="-295"/>
      <point x="76" y="-388"/>
    </contour>
    <contour>
      <point x="123" y="-251" type="line"/>
      <point x="166" y="-251" type="line"/>
      <point x="198" y="-99" type="line"/>
      <point x="155" y="-99" type="line"/>
    </contour>
    <contour>
      <point x="142" y="-251" type="line"/>
      <point x="329" y="-251" type="line"/>
      <point x="337" y="-211" type="line"/>
      <point x="150" y="-211" type="line"/>
    </contour>
    <contour>
      <point x="216" y="-251" type="line"/>
      <point x="256" y="-251" type="line"/>
      <point x="275" y="-165" type="line" smooth="yes"/>
      <point x="278" y="-150"/>
      <point x="287" y="-136"/>
      <point x="305" y="-136" type="curve" smooth="yes"/>
      <point x="323" y="-136"/>
      <point x="331" y="-149"/>
      <point x="327" y="-168" type="curve" smooth="yes"/>
      <point x="309" y="-251" type="line"/>
      <point x="352" y="-251" type="line"/>
      <point x="369" y="-175" type="line" smooth="yes"/>
      <point x="382" y="-117"/>
      <point x="344" y="-97"/>
      <point x="310" y="-97" type="curve" smooth="yes"/>
      <point x="279" y="-97"/>
      <point x="245" y="-115"/>
      <point x="234" y="-166" type="curve" smooth="yes"/>
    </contour>
    <contour>
      <point x="274" y="-81" type="curve" smooth="yes"/>
      <point x="293" y="-81"/>
      <point x="308" y="-65"/>
      <point x="308" y="-48" type="curve" smooth="yes"/>
      <point x="308" y="-32"/>
      <point x="293" y="-16"/>
      <point x="274" y="-16" type="curve" smooth="yes"/>
      <point x="255" y="-16"/>
      <point x="240" y="-32"/>
      <point x="240" y="-48" type="curve" smooth="yes"/>
      <point x="240" y="-65"/>
      <point x="255" y="-81"/>
    </contour>
  </outline>
</glyph>
<glyph name="zero-tamil" format="2">
  <advance width="608"/>
  <unicode hex="0BE6"/>
  <note>
uni0BE6
</note>
  <outline>
    <contour>
      <point x="268" y="-5" type="curve" smooth="yes"/>
      <point x="425" y="-5"/>
      <point x="556" y="131"/>
      <point x="556" y="319" type="curve" smooth="yes"/>
      <point x="556" y="482"/>
      <point x="465" y="559"/>
      <point x="337" y="559" type="curve" smooth="yes"/>
      <point x="167" y="559"/>
      <point x="52" y="405"/>
      <point x="52" y="236" type="curve" smooth="yes"/>
      <point x="52" y="106"/>
      <point x="125" y="-5"/>
    </contour>
    <contour>
      <point x="250" y="56" type="curve" smooth="yes"/>
      <point x="157" y="56"/>
      <point x="111" y="138"/>
      <point x="111" y="240" type="curve" smooth="yes"/>
      <point x="111" y="371"/>
      <point x="185" y="498"/>
      <point x="316" y="498" type="curve" smooth="yes"/>
      <point x="401" y="498"/>
      <point x="463" y="438"/>
      <point x="463" y="327" type="curve" smooth="yes"/>
      <point x="463" y="178"/>
      <point x="383" y="56"/>
    </contour>
  </outline>
</glyph>
<glyph name="nine-tamil" format="2">
  <advance width="1213"/>
  <unicode hex="0BEF"/>
  <note>
uni0BEF
</note>
  <outline>
    <contour>
      <point x="958" y="-19" type="line"/>
      <point x="1079" y="38"/>
      <point x="1150" y="102"/>
      <point x="1150" y="220" type="curve" smooth="yes"/>
      <point x="1150" y="361"/>
      <point x="1009" y="423"/>
      <point x="888" y="423" type="curve" smooth="yes"/>
      <point x="712" y="423"/>
      <point x="556" y="311"/>
      <point x="556" y="142" type="curve" smooth="yes"/>
      <point x="556" y="64"/>
      <point x="602" y="-5"/>
      <point x="710" y="-5" type="curve" smooth="yes"/>
      <point x="817" y="-5"/>
      <point x="905" y="66"/>
      <point x="905" y="168" type="curve" smooth="yes"/>
      <point x="905" y="278"/>
      <point x="810" y="317"/>
      <point x="691" y="317" type="curve" smooth="yes"/>
      <point x="485" y="317" type="line"/>
      <point x="524" y="500" type="line"/>
      <point x="696" y="500" type="line"/>
      <point x="707" y="554" type="line"/>
      <point x="223" y="554" type="line"/>
      <point x="166" y="286" type="line"/>
      <point x="226" y="286" type="line"/>
      <point x="271" y="500" type="line"/>
      <point x="431" y="500" type="line"/>
      <point x="392" y="317" type="line"/>
      <point x="249" y="317" type="line" smooth="yes"/>
      <point x="126" y="317"/>
      <point x="34" y="259"/>
      <point x="34" y="148" type="curve" smooth="yes"/>
      <point x="34" y="53"/>
      <point x="115" y="-4"/>
      <point x="225" y="-4" type="curve" smooth="yes"/>
      <point x="355" y="-4"/>
      <point x="430" y="58"/>
      <point x="458" y="188" type="curve" smooth="yes"/>
      <point x="474" y="263" type="line"/>
      <point x="681" y="263" type="line" smooth="yes"/>
      <point x="753" y="263"/>
      <point x="810" y="234"/>
      <point x="810" y="158" type="curve" smooth="yes"/>
      <point x="810" y="88"/>
      <point x="764" y="49"/>
      <point x="700" y="49" type="curve" smooth="yes"/>
      <point x="638" y="49"/>
      <point x="616" y="100"/>
      <point x="616" y="149" type="curve" smooth="yes"/>
      <point x="616" y="279"/>
      <point x="736" y="370"/>
      <point x="875" y="370" type="curve" smooth="yes"/>
      <point x="963" y="370"/>
      <point x="1056" y="326"/>
      <point x="1056" y="221" type="curve" smooth="yes"/>
      <point x="1056" y="129"/>
      <point x="1020" y="73"/>
      <point x="939" y="15" type="curve"/>
    </contour>
    <contour>
      <point x="221" y="49" type="curve" smooth="yes"/>
      <point x="151" y="49"/>
      <point x="99" y="85"/>
      <point x="99" y="155" type="curve" smooth="yes"/>
      <point x="99" y="229"/>
      <point x="159" y="263"/>
      <point x="245" y="263" type="curve" smooth="yes"/>
      <point x="381" y="263" type="line"/>
      <point x="364" y="181" type="line" smooth="yes"/>
      <point x="344" y="84"/>
      <point x="297" y="49"/>
    </contour>
  </outline>
</glyph>
<glyph name="onethousand-tamil" format="2">
  <advance width="1132"/>
  <unicode hex="0BF2"/>
  <note>
uni0BF2
</note>
  <outline>
    <contour>
      <point x="217" y="-4" type="curve" smooth="yes"/>
      <point x="347" y="-4"/>
      <point x="422" y="58"/>
      <point x="450" y="188" type="curve" smooth="yes"/>
      <point x="466" y="263" type="line"/>
      <point x="976" y="263" type="line"/>
      <point x="986" y="317" type="line"/>
      <point x="477" y="317" type="line"/>
      <point x="516" y="500" type="line"/>
      <point x="688" y="500" type="line"/>
      <point x="699" y="554" type="line"/>
      <point x="215" y="554" type="line"/>
      <point x="158" y="286" type="line"/>
      <point x="218" y="286" type="line"/>
      <point x="263" y="500" type="line"/>
      <point x="423" y="500" type="line"/>
      <point x="384" y="317" type="line"/>
      <point x="241" y="317" type="line" smooth="yes"/>
      <point x="118" y="317"/>
      <point x="26" y="259"/>
      <point x="26" y="148" type="curve" smooth="yes"/>
      <point x="26" y="53"/>
      <point x="107" y="-4"/>
    </contour>
    <contour>
      <point x="213" y="49" type="curve" smooth="yes"/>
      <point x="143" y="49"/>
      <point x="91" y="85"/>
      <point x="91" y="155" type="curve" smooth="yes"/>
      <point x="91" y="229"/>
      <point x="151" y="263"/>
      <point x="237" y="263" type="curve" smooth="yes"/>
      <point x="373" y="263" type="line"/>
      <point x="356" y="181" type="line" smooth="yes"/>
      <point x="336" y="84"/>
      <point x="289" y="49"/>
    </contour>
    <contour>
      <point x="359" y="-285" type="curve"/>
      <point x="374" y="-216"/>
      <point x="402" y="-179"/>
      <point x="494" y="-179" type="curve" smooth="yes"/>
      <point x="717" y="-179" type="line" smooth="yes"/>
      <point x="876" y="-179"/>
      <point x="1026" y="-122"/>
      <point x="1026" y="39" type="curve" smooth="yes"/>
      <point x="1026" y="148"/>
      <point x="944" y="188"/>
      <point x="828" y="188" type="curve" smooth="yes"/>
      <point x="671" y="188" type="line" smooth="yes"/>
      <point x="569" y="188"/>
      <point x="503" y="138"/>
      <point x="503" y="59" type="curve" smooth="yes"/>
      <point x="503" y="-7"/>
      <point x="560" y="-56"/>
      <point x="642" y="-56" type="curve" smooth="yes"/>
      <point x="747" y="-56"/>
      <point x="803" y="-4"/>
      <point x="824" y="94" type="curve" smooth="yes"/>
      <point x="866" y="291" type="line"/>
      <point x="778" y="291" type="line"/>
      <point x="735" y="88" type="line" smooth="yes"/>
      <point x="721" y="21"/>
      <point x="693" y="-2"/>
      <point x="642" y="-2" type="curve" smooth="yes"/>
      <point x="594" y="-2"/>
      <point x="563" y="25"/>
      <point x="563" y="66" type="curve" smooth="yes"/>
      <point x="563" y="110"/>
      <point x="595" y="134"/>
      <point x="663" y="134" type="curve" smooth="yes"/>
      <point x="817" y="134" type="line" smooth="yes"/>
      <point x="906" y="134"/>
      <point x="940" y="99"/>
      <point x="940" y="29" type="curve" smooth="yes"/>
      <point x="940" y="-94"/>
      <point x="824" y="-125"/>
      <point x="701" y="-125" type="curve" smooth="yes"/>
      <point x="470" y="-125" type="line" smooth="yes"/>
      <point x="359" y="-125"/>
      <point x="285" y="-153"/>
      <point x="285" y="-222" type="curve" smooth="yes"/>
      <point x="285" y="-263"/>
      <point x="311" y="-285"/>
    </contour>
  </outline>
</glyph>
<glyph name="month-tamil" format="2">
  <advance width="1113"/>
  <unicode hex="0BF4"/>
  <note>
uni0BF4
</note>
  <anchor x="395" y="0" name="bottom"/>
  <anchor x="836" y="554" name="imatra"/>
  <anchor x="396" y="0" name="nukta"/>
  <anchor x="536" y="554" name="top"/>
  <anchor x="530" y="554" name="vedic"/>
  <outline>
    <contour>
      <point x="761" y="468" type="curve"/>
      <point x="788" y="493" type="line"/>
      <point x="759" y="529"/>
      <point x="738" y="566"/>
      <point x="738" y="618" type="curve" smooth="yes"/>
      <point x="738" y="716"/>
      <point x="816" y="786"/>
      <point x="909" y="786" type="curve" smooth="yes"/>
      <point x="963" y="786"/>
      <point x="1007" y="759"/>
      <point x="1007" y="699" type="curve" smooth="yes"/>
      <point x="1007" y="653"/>
      <point x="974" y="620"/>
      <point x="933" y="620" type="curve" smooth="yes"/>
      <point x="892" y="620"/>
      <point x="873" y="653"/>
      <point x="873" y="711" type="curve" smooth="yes"/>
      <point x="873" y="796"/>
      <point x="951" y="887"/>
      <point x="1059" y="887" type="curve" smooth="yes"/>
      <point x="1130" y="887"/>
      <point x="1187" y="850"/>
      <point x="1171" y="773" type="curve" smooth="yes"/>
      <point x="1128" y="571" type="line"/>
      <point x="1215" y="571" type="line"/>
      <point x="1261" y="789" type="line" smooth="yes"/>
      <point x="1275" y="857"/>
      <point x="1302" y="898"/>
      <point x="1367" y="892" type="curve"/>
      <point x="1378" y="936" type="line"/>
      <point x="1295" y="943"/>
      <point x="1250" y="892"/>
      <point x="1225" y="835" type="curve"/>
      <point x="1220" y="835" type="line"/>
      <point x="1206" y="904"/>
      <point x="1143" y="936"/>
      <point x="1062" y="936" type="curve" smooth="yes"/>
      <point x="933" y="936"/>
      <point x="823" y="825"/>
      <point x="823" y="705" type="curve" smooth="yes"/>
      <point x="823" y="620"/>
      <point x="863" y="566"/>
      <point x="944" y="566" type="curve" smooth="yes"/>
      <point x="1021" y="566"/>
      <point x="1088" y="621"/>
      <point x="1088" y="708" type="curve" smooth="yes"/>
      <point x="1088" y="789"/>
      <point x="1017" y="837"/>
      <point x="919" y="837" type="curve" smooth="yes"/>
      <point x="800" y="837"/>
      <point x="691" y="738"/>
      <point x="691" y="625" type="curve" smooth="yes"/>
      <point x="691" y="562"/>
      <point x="713" y="521"/>
    </contour>
    <component base="ma-tamil"/>
  </outline>
</glyph>
<glyph name="debit-tamil" format="2">
  <advance width="1155"/>
  <unicode hex="0BF6"/>
  <note>
uni0BF6
</note>
  <outline>
    <contour>
      <point x="254" y="-348" type="curve" smooth="yes"/>
      <point x="488" y="-348"/>
      <point x="679" y="-228"/>
      <point x="726" y="-4" type="curve" smooth="yes"/>
      <point x="844" y="554" type="line"/>
      <point x="751" y="554" type="line"/>
      <point x="634" y="3" type="line" smooth="yes"/>
      <point x="595" y="-182"/>
      <point x="451" y="-294"/>
      <point x="248" y="-294" type="curve" smooth="yes"/>
      <point x="103" y="-294"/>
      <point x="8" y="-227"/>
      <point x="8" y="-155" type="curve" smooth="yes"/>
      <point x="8" y="-132"/>
      <point x="25" y="-119"/>
      <point x="52" y="-119" type="curve" smooth="yes"/>
      <point x="973" y="-119" type="line"/>
      <point x="1116" y="554" type="line"/>
      <point x="1023" y="554" type="line"/>
      <point x="892" y="-65" type="line"/>
      <point x="53" y="-65" type="line" smooth="yes"/>
      <point x="-6" y="-65"/>
      <point x="-51" y="-94"/>
      <point x="-51" y="-156" type="curve" smooth="yes"/>
      <point x="-51" y="-246"/>
      <point x="63" y="-348"/>
    </contour>
    <contour>
      <point x="40" y="15" type="line"/>
      <point x="681" y="15" type="line"/>
      <point x="693" y="68" type="line"/>
      <point x="144" y="68" type="line"/>
      <point x="247" y="554" type="line"/>
      <point x="155" y="554" type="line"/>
    </contour>
  </outline>
</glyph>
<glyph name="quoteleft" format="2">
  <advance width="250"/>
  <unicode hex="2018"/>
  <outline>
    <contour>
      <point x="183" y="440" type="curve" smooth="yes"/>
      <point x="217" y="440"/>
      <point x="245" y="460"/>
      <point x="245" y="499" type="curve" smooth="yes"/>
      <point x="245" y="552"/>
      <point x="180" y="552"/>
      <point x="180" y="588" type="curve" smooth="yes"/>
      <point x="180" y="628"/>
      <point x="215" y="657"/>
      <point x="282" y="672" type="curve"/>
      <point x="286" y="714" type="line"/>
      <point x="162" y="689"/>
      <point x="105" y="613"/>
      <point x="105" y="522" type="curve" smooth="yes"/>
      <point x="105" y="470"/>
      <point x="141" y="440"/>
    </contour>
  </outline>
</glyph>
<glyph name="quotedblright" format="2">
  <advance width="450"/>
  <unicode hex="201D"/>
  <outline>
    <contour>
      <point x="282" y="440" type="line"/>
      <point x="406" y="465"/>
      <point x="463" y="541"/>
      <point x="463" y="632" type="curve" smooth="yes"/>
      <point x="463" y="684"/>
      <point x="427" y="714"/>
      <point x="385" y="714" type="curve" smooth="yes"/>
      <point x="351" y="714"/>
      <point x="323" y="694"/>
      <point x="323" y="655" type="curve" smooth="yes"/>
      <point x="323" y="602"/>
      <point x="388" y="602"/>
      <point x="388" y="566" type="curve" smooth="yes"/>
      <point x="388" y="526"/>
      <point x="353" y="497"/>
      <point x="286" y="482" type="curve"/>
    </contour>
    <contour>
      <point x="82" y="440" type="line"/>
      <point x="206" y="465"/>
      <point x="263" y="541"/>
      <point x="263" y="632" type="curve" smooth="yes"/>
      <point x="263" y="684"/>
      <point x="227" y="714"/>
      <point x="185" y="714" type="curve" smooth="yes"/>
      <point x="151" y="714"/>
      <point x="123" y="694"/>
      <point x="123" y="655" type="curve" smooth="yes"/>
      <point x="123" y="602"/>
      <point x="188" y="602"/>
      <point x="188" y="566" type="curve" smooth="yes"/>
      <point x="188" y="526"/>
      <point x="153" y="497"/>
      <point x="86" y="482" type="curve"/>
    </contour>
  </outline>
</glyph>
<glyph name="rupeeIndian" format="2">
  <advance width="548"/>
  <unicode hex="20B9"/>
  <outline>
    <contour>
      <point x="326" y="0" type="curve" smooth="yes"/>
      <point x="350" y="0" type="line"/>
      <point x="359" y="42" type="line"/>
      <point x="346" y="42" type="line" smooth="yes"/>
      <point x="305" y="42"/>
      <point x="280" y="68"/>
      <point x="260" y="122" type="curve" smooth="yes"/>
      <point x="189" y="318" type="line"/>
      <point x="352" y="324"/>
      <point x="427" y="400"/>
      <point x="456" y="497" type="curve"/>
      <point x="566" y="497" type="line"/>
      <point x="576" y="544" type="line"/>
      <point x="467" y="544" type="line"/>
      <point x="475" y="597"/>
      <point x="464" y="638"/>
      <point x="434" y="667" type="curve"/>
      <point x="602" y="667" type="line"/>
      <point x="612" y="714" type="line"/>
      <point x="151" y="714" type="line"/>
      <point x="141" y="667" type="line"/>
      <point x="237" y="667" type="line" smooth="yes"/>
      <point x="339" y="667"/>
      <point x="374" y="632"/>
      <point x="362" y="544" type="curve"/>
      <point x="115" y="544" type="line"/>
      <point x="105" y="497" type="line"/>
      <point x="352" y="497" type="line"/>
      <point x="324" y="397"/>
      <point x="268" y="365"/>
      <point x="158" y="365" type="curve" smooth="yes"/>
      <point x="77" y="365" type="line"/>
      <point x="71" y="337" type="line"/>
      <point x="153" y="90" type="line" smooth="yes"/>
      <point x="179" y="13"/>
      <point x="204" y="0"/>
    </contour>
  </outline>
</glyph>
<glyph name="iMatra-tamil.alt01" format="2">
  <advance width="228"/>
  <note>
uni0BBF
</note>
  <anchor x="-25" y="834" name="top"/>
  <outline>
    <contour>
      <point x="13" y="0" type="line"/>
      <point x="73" y="0" type="line"/>
      <point x="193" y="561" type="line" smooth="yes"/>
      <point x="226" y="717"/>
      <point x="139" y="834"/>
      <point x="-25" y="834" type="curve" smooth="yes"/>
      <point x="-165" y="834"/>
      <point x="-256" y="741"/>
      <point x="-256" y="627" type="curve" smooth="yes"/>
      <point x="-256" y="571"/>
      <point x="-233" y="533"/>
      <point x="-197" y="504" type="curve"/>
      <point x="-167" y="536" type="line"/>
      <point x="-188" y="554"/>
      <point x="-197" y="581"/>
      <point x="-197" y="607" type="curve" smooth="yes"/>
      <point x="-197" y="689"/>
      <point x="-134" y="746"/>
      <point x="-33" y="746" type="curve" smooth="yes"/>
      <point x="90" y="746"/>
      <point x="155" y="659"/>
      <point x="127" y="531" type="curve" smooth="yes"/>
    </contour>
  </outline>
</glyph>
<glyph name="vii-tamil" format="2">
  <advance width="1138"/>
  <note>
g142
</note>
  <anchor x="536" y="0" name="bottom"/>
  <anchor x="539" y="0" name="nukta"/>
  <anchor x="1017" y="882" name="top"/>
  <anchor x="615" y="554" name="vedic"/>
  <anchor x="1016" y="554" name="imatra"/>
  <outline>
    <contour>
      <point x="947" y="505" type="curve" smooth="yes"/>
      <point x="1018" y="505" type="line"/>
      <point x="1028" y="554" type="line"/>
      <point x="957" y="554" type="line" smooth="yes"/>
      <point x="885" y="554"/>
      <point x="824" y="595"/>
      <point x="824" y="672" type="curve" smooth="yes"/>
      <point x="824" y="764"/>
      <point x="900" y="828"/>
      <point x="1009" y="828" type="curve" smooth="yes"/>
      <point x="1074" y="828"/>
      <point x="1121" y="799"/>
      <point x="1121" y="740" type="curve" smooth="yes"/>
      <point x="1121" y="687"/>
      <point x="1084" y="656"/>
      <point x="1033" y="656" type="curve" smooth="yes"/>
      <point x="944" y="656"/>
      <point x="942" y="763"/>
      <point x="1008" y="851" type="curve"/>
      <point x="967" y="855" type="line"/>
      <point x="869" y="730"/>
      <point x="900" y="602"/>
      <point x="1041" y="602" type="curve" smooth="yes"/>
      <point x="1134" y="602"/>
      <point x="1203" y="656"/>
      <point x="1203" y="743" type="curve" smooth="yes"/>
      <point x="1203" y="832"/>
      <point x="1121" y="882"/>
      <point x="1017" y="882" type="curve" smooth="yes"/>
      <point x="874" y="882"/>
      <point x="766" y="788"/>
      <point x="766" y="666" type="curve" smooth="yes"/>
      <point x="766" y="562"/>
      <point x="857" y="505"/>
    </contour>
    <component base="va-tamil"/>
  </outline>
</glyph>
